<svg height="82" viewBox="0 4 67 60" width="78" xmlns="http://www.w3.org/2000/svg"><g id="037---Ganesha-God" fill="none"><g id="Icons" transform="translate(0 1)"><path id="Shape" d="m27 3.46-1.07 3.54h-4.86l-1.07-3.54c-.1134645-.39464497.0112106-.81931948.32-1.09l2.46-2.12c.3935894-.32914393.9664106-.32914393 1.36 0l2.46 2.12c.3381608.25151058.4952051.67945607.4 1.09z" fill="#ffdc00"/><path id="Shape" d="m26 58.0000262-24-.0000262c-.28737984.0020776-.56176242-.1195851-.75316693-.3339581-.1914045-.214373-.28132706-.5007322-.24683307-.7860419l1.06-9c.49297322-4.1389583 3.50154122-7.5380424 7.55-8.53l1.53-.35c1.3423407 3.0232748 3.74275 5.4521334 6.75 6.83-.5795619 1.3142364-.8825099 2.7336668-.89 4.17 0 4 1 8 9 8.0000262z" fill="#ff9801"/><path id="Shape" d="m46 56.88c.034494.2853097-.0554286.5716689-.2468331.7860419s-.4657871.3360357-.7531669.3339581h-18.49c1.3807119 0 2.5-1.1192881 2.5-2.5s-1.1192881-2.5-2.5-2.5c-2-.05-3.25-.49-3.25-3-.0034868-1.0585294.2873387-2.097192.84-3 5.107506-.2360849 9.6456777-3.3311721 11.73-8l1.52.38c4.0484588.9919576 7.0570268 4.3910417 7.55 8.53z" fill="#ff9801"/><path id="Shape" d="m44.93 47.86c-.4929732-4.1389583-3.5015412-7.5380424-7.55-8.53l-1.52-.33c-.11.25-.24.5-.36.75 3.5101406 1.2904855 5.9961834 4.4454013 6.43 8.16l1.06 9c.0251902.2787-.0675493.5552044-.2556929.7623523-.1881435.207148-.4544759.3259854-.7343071.3276477h3c.2873798.0020776.5617624-.1195851.7531669-.3339581s.2813271-.5007322.2468331-.7860419z" fill="#f57c00"/><path id="Shape" d="m45 36c0 2.4-1.44 4.8-2.59 6.33-1.3316386-1.4744978-3.0723191-2.5189061-5-3l-1.55-.33-3.51-.88c1.3063035-1.4522006 2.218658-3.2149384 2.65-5.12.18-.8-.75-1.64-.75-2.5 0-1.6.69-3.12.09-4.5-.3408222-.7727826-.7632184-1.5069475-1.26-2.19 3.49-3.65 7.92-4.88 11.42-2.81.4659696.2667445.6381306.8538577.39 1.33-1.1232581 2.0530428-1.7692697 4.3328826-1.89 6.67 0 4 2 3 2 7z" fill="#ff9801"/><path id="Shape" d="m43 29c.1207303-2.3371174.7667419-4.6169572 1.89-6.67.2481306-.4761423.0759696-1.0632555-.39-1.33-1.5660672-.9235896-3.4213596-1.2268586-5.2-.85.7744574.1625546 1.5174324.4496131 2.2.85.4659696.2667445.6381306.8538577.39 1.33-1.1232581 2.0530428-1.7692697 4.3328826-1.89 6.67 0 4 2 3 2 7-.0851421 1.674605-.6056071 3.2980423-1.51 4.71.7037014.4596382 1.3484959 1.0036836 1.92 1.62 1.15-1.53 2.59-3.93 2.59-6.33 0-4-2-3-2-7z" fill="#f57c00"/><path id="Shape" d="m19 41.13c-.0416612 1.6104492-.4197592 3.194373-1.11 4.65-2.9984841-1.3656031-5.3977073-3.7754895-6.75-6.78l3.51-.88c1.2030612 1.3201333 2.6905616 2.3494151 4.35 3.01z" fill="#d84315"/><path id="Shape" d="m14.65 38.07-3.51.93-1.52.38c-1.92768091.4810939-3.66836142 1.5255022-5 3-1.18-1.58-2.62-3.98-2.62-6.38 0-4 2-3 2-7-.12073029-2.3371174-.76674187-4.6169572-1.89-6.67-.24813057-.4761423-.07596957-1.0632555.39-1.33 3.49-2.07 7.93-.84 11.44 2.81-.4967816.6830525-.9191778 1.4172174-1.26 2.19-.6 1.38.09 2.9.09 4.5 0 .86-.93 1.7-.74 2.51.4276002 1.8824732 1.3295059 3.6243217 2.62 5.06z" fill="#ff9801"/><path id="Shape" d="m12 33c-.19-.81.74-1.65.74-2.51 0-1.6-.69-3.12-.09-4.5.3408222-.7727826.7632184-1.5069475 1.26-2.19-2.81-2.92-6.21-4.28-9.24-3.66 2.40408625.5563254 4.58108492 1.8332188 6.24 3.66-.4869816.6875611-.8993094 1.4250581-1.23 2.2-.6 1.38.09 2.9.09 4.5 0 .86-.93 1.7-.74 2.51.42760018 1.8824732 1.3295059 3.6243217 2.62 5.06l-3.51.93-1.52.38c-1.10788586.2789688-2.15977482.7457234-3.11 1.38.36.6.73 1.15 1.08 1.62 1.33163858-1.4744978 3.07231909-2.5189061 5-3l1.55-.38 3.51-.88c-1.3104058-1.4493595-2.2233464-3.2132297-2.65-5.12z" fill="#f57c00"/><path id="Shape" d="m35.86 39c-2.0843223 4.6688279-6.622494 7.7639151-11.73 8 1-1.77 2.66-3.06 2.85-5.5 2.0699708-.625515 3.9278277-1.8087311 5.37-3.42z" fill="#d84315"/><path id="Shape" d="m35 33c-.4334922 1.8853325-1.3384106 3.6297948-2.63 5.07-1.4421723 1.6112689-3.3000292 2.794485-5.37 3.42-.19 2.44-1.83 3.73-2.85 5.5-.5526613.902808-.8434868 1.9414706-.84 3 0 2.53 1.28 3 3.25 3 1.3807119 0 2.5 1.1192881 2.5 2.5s-1.1192881 2.5-2.5 2.5h-.56c-8 0-9-4-9-8 .0005936-1.4531879.3036897-2.8903401.89-4.22.6888874-1.4525614 1.0669517-3.0329383 1.11-4.64-1.6643079-.6750585-3.1522258-1.7217318-4.35-3.06-1.302845-1.4352399-2.2153165-3.1809873-2.65-5.07-.19-.81.74-1.65.74-2.51 0-1.6-.69-3.12-.09-4.5.3408222-.7727826.7632184-1.5069475 1.26-2.19 1.0509757-1.4442487 2.4194485-2.6279776 4-3.46v.06c3 0 5.48 2.4 5.48 4.61 0-2.21 2.46-4.61 5.48-4.61v-.06c1.5793138.8117173 2.9485976 1.9790318 4 3.41h.05c.5492545.6953453 1.0188518 1.4500552 1.4 2.25.6 1.38-.09 2.9-.09 4.5 0 .86.93 1.7.77 2.5z" fill="#ff9801"/><path id="Shape" d="m20.28 19.43c-.08-.13-.16-.26-.25-.38" fill="#ff9801"/><path id="Shape" d="m29 20.35v.06c-3 0-5.48 2.4-5.48 4.61 0-2.21-2.46-4.61-5.48-4.61v-.06c.6377465-.3417708 1.3076582-.6197842 2-.83 2.2814794-.6956796 4.7185206-.6956796 7 0 .6791594.2112081 1.3357041.4892347 1.96.83z" fill="#d84315"/><path id="Shape" d="m27 19.52c-2.2814794-.6956796-4.7185206-.6956796-7 0-.0102663-.1564985-.0102663-.3135015 0-.47.36-2.78 3.5-4.05 3.5-4.05s3.11 1.25 3.47 4c.0210924.172515.0311129.3462039.03.52z" fill="#9d27b0"/><path id="Shape" d="m33 23.75c-1.0514024-1.4309682-2.4206862-2.5982827-4-3.41-.637061-.3432148-1.3071198-.6212892-2-.83.0102472-.1665092.0102472-.3334908 0-.5.751498-.9444048 1.8152496-1.5897475 3-1.82.6555449-.1501779 1.3279033-.2140519 2-.19 0 0 2.57 4.06 1 6.75z" fill="#9d27b0"/><path id="Shape" d="m27 19c-.1013177.1310394-.1948135.2679441-.28.41" fill="#ff9801"/><path id="Shape" d="m20 19.05c-.0102663.1564985-.0102663.3135015 0 .47-.6923418.2102158-1.3622535.4882292-2 .83-1.5805515.8320224-2.9490243 2.0157513-4 3.46-1.61-2.69 1-6.81 1-6.81.6721001-.0241666 1.3444734.0397089 2 .19 1.1901797.2414775 2.2544736.9013397 3 1.86z" fill="#9d27b0"/><path id="Shape" d="m30 14v3.21c-1.1804778.2224263-2.2436321.856775-3 1.79-.36-2.76-3.47-4-3.47-4s-3.17 1.27-3.53 4.05c-.7455264-.9586603-1.8098203-1.6185225-3-1.86v-3.19c.0119686-1.2609019.8111366-2.3797372 2-2.8.3176025-.1295838.6569885-.197461 1-.2h7c.3417209-.0038263.6810619.0572551 1 .18 1.1957287.4227483 1.9964356 1.5517451 2 2.82z" fill="#ffdc00"/><path id="Shape" d="m28 11.18c-.3189381-.1227449-.6582791-.1838263-1-.18h-3c.3417209-.0038263.6810619.0572551 1 .18 1.1957287.4227483 1.9964356 1.5517451 2 2.82v3.21c-.2 0-.42.11-.63.18.321234.4862099.5359376 1.0348968.63 1.61.751498-.9444048 1.8152496-1.5897475 3-1.82v-3.18c-.0035644-1.2682549-.8042713-2.3972517-2-2.82z" fill="#fec108"/><path id="Shape" d="m28 8v3.2c-.3176025-.1295838-.6569885-.197461-1-.2h-7c-.3417209-.0038263-.6810619.0572551-1 .18v-3.18c0-.55228475.4477153-1 1-1h7c.5522847 0 1 .44771525 1 1z" fill="#9d27b0"/><g fill="#6a1b9a"><path id="Shape" d="m19 11.18c.3189381-.1227449.6582791-.1838263 1-.18h-1z"/><path id="Shape" d="m27 7h-3c.5522847 0 1 .44771525 1 1v3h2c.3417209-.0038263.6810619.0572551 1 .18v-3.18c0-.55228475-.4477153-1-1-1z"/></g></g><g id="Layer_11" fill="#000" transform="translate(-1)"><path id="Shape" d="m1 57.77c-.06588585.5690089.11536585 1.1389575.49781589 1.5653893s.92938602.6684125 1.50218411.6646107h43c.5727981.0038018 1.1197341-.2381789 1.5021841-.6646107s.5637017-.9963804.4978159-1.5653893l-1.07-9c-.2447514-1.9850763-1.0261043-3.8658549-2.26-5.44 1.3844001-1.8337879 2.1951124-4.0362809 2.33-6.33.0849044-1.4285833-.3286234-2.8423539-1.17-4-.6372248-.8633952-.9328323-1.9318557-.83-3 .1146734-2.1782091.7233648-4.3017896 1.78-6.21.4897658-.9498578.1462497-2.1169317-.78-2.65-3.12-1.86-7-1.38-10.52 1.11-.2067097-1.6948267-.7763118-3.3251846-1.67-4.78-.175424-.281223-.4787939-.4572525-.81-.47-.3329839-.0215836-.6670161-.0215836-1 0v-2c-.0121097-1.4168642-.7728849-2.7215938-2-3.43v-2.57c.0079484-1.0138751-.7440421-1.87329287-1.75-2l.67-2.28c.2192996-.76904675-.0263041-1.59552268-.63-2.12l-2.46-2.11c-.7678425-.6491761-1.8921575-.6491761-2.66 0l-2.46 2.13c-.6036959.52447732-.8492996 1.35095325-.63 2.12l.67 2.26c-1.0059579.12670713-1.7579484.9861249-1.75 2v2.57c-1.2271151.7084062-1.9878903 2.0131358-2 3.43v2c-.356378-.0202945-.713622-.0202945-1.07 0-.3185065.0200845-.6082975.190987-.78.46-.8811054 1.4571386-1.4497942 3.0814773-1.67 4.77-3.48-2.48-7.38-2.94-10.48-1.09-.92257334.536427-1.26145403 1.7027047-.77 2.65 1.0531461 1.9090508 1.65840449 4.0325845 1.77 6.21.10283226 1.0681443-.19277516 2.1366048-.83 3-.84137657 1.1576461-1.25490444 2.5714167-1.17 4 .14361466 2.2843939.95754563 4.4757465 2.34 6.3-1.23389567 1.5741451-2.01524855 3.4549237-2.26 5.44zm18-15c-.0713826.9086055-.2769463 1.8016282-.61 2.65-1.9924766-1.1255025-3.6386814-2.7751658-4.76-4.77l1.75-.44c1.0461089 1.0524946 2.2720923 1.9093283 3.62 2.53zm1 4.13c1.23-3.29 1-3.57 1-10.9 0-.5522847-.4477153-1-1-1s-1 .4477153-1 1v4.51c-2.5225693-1.4540659-4.3320505-3.8860087-5-6.72 0-.3.77-1.26.77-2.29 0-1.62-.62-3.07-.17-4.1.9155685-2.1153604 2.4999405-3.8718704 4.51-5 2.44 0 4.39 2 4.39 3.6 0 .5522847.4477153 1 1 1s1-.4477153 1-1c0-1.62 2-3.56 4.39-3.6 2.0100595 1.1281296 3.5944315 2.8846396 4.51 5 .44 1-.17 2.51-.17 4.1 0 1 .79 2 .77 2.28-.7643462 3.2107981-2.9833122 5.8809538-6 7.22v-5c0-.5522847-.4477153-1-1-1s-1 .4477153-1 1v6c0 3.46-3.71 4.66-3.71 9 0 3.91 3 4 4.22 4 .8284271 0 1.5.6715729 1.5 1.5s-.6715729 1.5-1.5 1.5c-7 0-8.51-2.3-8.51-7 .0092167-1.4275472.3264393-2.8362881.93-4.13zm4.5-23.72c-.5928882-.8080079-1.3580173-1.4740801-2.24-1.95 1.4772247-.3101973 3.0027753-.3101973 4.48 0-.8819827.4759199-1.6471118 1.1419921-2.24 1.95zm-2.17-4c.5023241-.8922056 1.2573288-1.6158968 2.17-2.08.9199314.4574346 1.6799038 1.1825459 2.18 2.08-1.4398009-.2466671-2.9113484-.2432843-4.35.01zm6.55 24c1.7992125-.6266706 3.433335-1.6522705 4.78-3l1.74.43c-1.7186429 3.102006-4.6869037 5.316365-8.15 6.08.8090437-1.015922 1.3674512-2.2081048 1.63-3.48zm17.12 14.82h-10c.4255386-.3618799.7931347-.7868075 1.09-1.26 2.12-3.39-.07-8-.16-8.18-.2430053-.4970563-.8429437-.7030053-1.34-.46s-.7030053.8429437-.46 1.34c0 0 1.78 3.82.27 6.24-.79 1.25-2.36 2-4.67 2.23.484485-1.0748642.391793-2.3219375-.2462744-3.3133651-.6380675-.9914276-1.7347258-1.5923637-2.9137256-1.5966349-1.77-.05-2.28-.32-2.28-2-.0064037-.7139535.1545649-1.4194758.47-2.06 4.9762896-.4120394 9.3826038-3.3760807 11.64-7.83l.74.19c3.6488239.8975514 6.3560067 3.9675526 6.79 7.7zm-1-35.13c-1.2041887 2.1920223-1.8884691 4.6314818-2 7.13-.0849044 1.4285833.3286234 2.8423539 1.17 4 .6372248.8633952.9328323 1.9318557.83 3-.1239817 1.730329-.7263952 3.3921594-1.74 4.8-2.46-2.17-4.64-2.44-8.19-3.33.9119668-1.2786152 1.5673929-2.7219109 1.93-4.25.10372-.6551774-.0311186-1.3258218-.38-1.89 1.0012098.2434006 1.9322905.7157871 2.72 1.38.1762929.1753619.4115961.2787527.66.29.4062651.0023626.77358-.2413038.929371-.6165185.1557909-.3752147.0690889-.807391-.219371-1.0934815-.9882349-.8699626-2.1662932-1.4966622-3.44-1.83.7462265-.7450801 1.6959997-1.2530174 2.73-1.46.5522847 0 1-.4477153 1-1s-.4477153-1-1-1c-1.2700181.1266632-2.4706531.6397252-3.44 1.47.0338876-.6393837-.0754397-1.2782651-.32-1.87-.2554278-.5758308-.5494293-1.1337654-.88-1.67 3.16-2.93 6.8-3.75 9.64-2.06zm-11.5-.23c-1.1803447-1.1355008-2.5691874-2.0319665-4.09-2.64.8794651-.6219614 1.9232511-.9698901 3-1 .6249708 1.1190993.9970356 2.3615911 1.09 3.64zm-12.5-11.64v-2h7v2zm3.53-9 2.47 2.18-.82 2.82h-3.35l-.83-2.87zm-5.53 13c0-1.1045695.8954305-2 2-2h7c1.1045695 0 2 .8954305 2 2v2.46c-.5555342.1850052-1.0836158.4440006-1.57.77-.8216388-1.3956315-2.0644808-2.494934-3.55-3.14-.2419732-.0895927-.5080268-.0895927-.75 0-1.4962797.6411446-2.7475377 1.7451957-3.57 3.15-.4803085-.3378459-1.005359-.6071026-1.56-.8zm-2.43 4c1.0750002.0398788 2.1160726.3869029 3 1-1.5363654.6270651-2.9357874 1.5475587-4.12 2.71.1044651-1.3023914.4863437-2.5673644 1.12-3.71zm-11.74 15c.84137657-1.1576461 1.25490444-2.5714167 1.17-4-.11772842-2.5006881-.80157697-4.9420275-2-7.14 2.83-1.68 6.47-.88 9.63 2.07-.3305707.5362346-.6245722 1.0941692-.88 1.67-.2445603.5917349-.3538876 1.2306163-.32 1.87-.9666176-.828408-2.1634855-1.3413514-3.43-1.47-.55228475 0-1 .4477153-1 1s.44771525 1 1 1c1.0340003.2069826 1.9837735.7149199 2.73 1.46-1.2737068.3333378-2.45176514.9600374-3.44 1.83-.28845995.2860905-.37516186.7182668-.21937095 1.0934815s.52310588.6188811.92937095.6165185c.26580298.0015368.52128117-.1028135.71-.29.7877095-.6642129 1.7187902-1.1365994 2.72-1.38-.3495831.567599-.4843848 1.2416074-.38 1.9.3502134 1.5186661.9847145 2.9573209 1.87 4.24-3.51.88-5.71 1.16-8.18 3.33-1.01360479-1.4078406-1.61601832-3.069671-1.74-4.8-.09033562-1.0514591.20465037-2.0999032.83-2.95zm-.76 15c.44570225-3.7209857 3.15052344-6.7763581 6.79-7.67l.75-.19c1.3291333 2.6116827 3.4219264 4.7567957 6 6.15-.4223667 1.1905446-.6289367 2.4468961-.61 3.71 0 2.5.42 5.21 2.63 7-2.5 0-5.65-.18-7-2.31-1.54-2.45.24-6.22.26-6.25.1571969-.321539.1309137-.7025169-.0689488-.9994229-.1998626-.296906-.5429406-.464633-.9-.44-.3570594.0246331-.6738543.2378839-.8310512.5594229-.09.2-2.28 4.79-.16 8.18.2907792.4717783.6515645.8966283 1.07 1.26h-9z"/><path id="Shape" d="m29 32c3 0 3.92-4 2-4-.5522847 0-1 .4477153-1 1s-.4477153 1-1 1-1-.4477153-1-1-.4477153-1-1-1c-1.91 0-1 4 2 4z"/><path id="Shape" d="m22 28c-.5522847 0-1 .4477153-1 1s-.4477153 1-1 1-1-.4477153-1-1-.4477153-1-1-1c-1.91 0-1 4 2 4s3.92-4 2-4z"/></g></g></svg>